Stream #0:0: Video: h264 (High), yuv420p(progressive), 1920x1080 [SAR 1:1 DAR 16:9], 25 fps, 25 tbr, 1k tbn, 50 tbc (default)
Stream #0:1(fre): Audio: aac (LC), 44100 Hz, stereo, fltp (default)
Stream #0:2(eng): Audio: aac (LC), 44100 Hz, stereo, fltp
Stream #0:3(fre): Subtitle: subrip